<?xml version="1.0" encoding="utf-8"?>
<!-- Generator: Adobe Illustrator 16.0.0, SVG Export Plug-In . SVG Version: 6.00 Build 0)  -->
<!DOCTYPE svg PUBLIC "-//W3C//DTD SVG 1.1//EN" "http://www.w3.org/Graphics/SVG/1.1/DTD/svg11.dtd">
<svg version="1.1" id="Layer_1" xmlns="http://www.w3.org/2000/svg" xmlns:xlink="http://www.w3.org/1999/xlink" x="0px" y="0px"
	 width="206.942px" height="97.013px" viewBox="0 0 206.942 97.013" enable-background="new 0 0 206.942 97.013"
	 xml:space="preserve">
<g>
	<g>
		<path fill="#BF902D" d="M65.48,60.843c3.951-9.459,6.826-17.992,8.442-25.319c-6.556,7.976-20.209,20.218-31.795,20.218
			c-8.982,0-13.024-8.068-13.024-16.694c0-23.001,19.85-39.046,36.646-39.046c8.264,0,13.203,4.266,13.203,10.202
			c0,12.243-16.616,25.227-27.035,25.227c-3.863,0-4.67-2.411-4.67-4.174c0-5.194,7.005-12.613,13.383-16.786
			c3.772-2.505,9.251-5.009,9.431-5.009c0.27,0,0.629,0.278,0.629,0.557c0,0.556-0.539,0.741-0.988,0.926
			c-13.113,5.38-21.377,15.49-21.377,20.498c0,0.834,0.18,1.669,1.438,2.319c0.449,0.277,1.167,0.463,2.066,0.463
			c1.616,0,8.353-1.484,16.437-9.924c4.76-5.008,8.622-11.593,8.622-15.489c0-5.843-6.646-7.605-10.867-7.605
			c-7.007,0-13.204,4.452-17.785,9.368c-11.047,11.593-14.55,28.195-14.55,34.687c0,4.359,1.527,6.399,2.335,7.234
			c1.348,1.298,3.234,2.04,6.108,2.04c8.173,0,17.065-6.585,21.287-10.017c5.03-4.173,8.083-7.234,11.227-11.779
			c0.719,0.093,1.078,0.185,1.617,0.185c1.796,0,3.502-0.556,5.209-1.02c-2.156,9.46-4.042,15.025-10.33,28.38
			c1.887-0.094,3.772-0.186,5.659-0.463c0.539-0.093,0.988-0.093,1.527-0.187c0.18,0,1.526-0.278,1.796-0.278
			c0.449,0,0.898,0.278,0.898,0.557c0,0.094-0.27,0.558-1.617,0.65c-2.425,0.277-6.466,0.742-8.981,0.926
			c-2.694,5.102-7.544,13.819-16.796,21.889C43.474,92.006,32.246,97.015,20.66,97.015c-5.209,0-10.329-1.205-14.551-4.268
			c-2.246-1.577-6.107-4.636-6.107-11.222c0-5.473,2.785-9.738,4.491-11.223c4.491-4.08,11.407-5.286,26.227-6.585
			c7.276-0.648,14.641-1.206,21.917-1.762L65.48,60.843z M53.713,62.884c-13.203,1.205-14.64,1.299-17.155,1.576
			c-7.545,0.834-16.887,2.225-23.353,4.083C7.636,70.211,2.067,72.622,2.067,77.63c0,7.977,14.82,12.706,29.101,12.706
			c19.222,0,26.407-12.984,33.862-28.38L53.713,62.884z"/>
		<path fill="#BF902D" d="M105.449,37.749c1.438-2.04,2.516-3.617,4.311-3.617c1.797,0,2.605,1.763,2.605,2.597
			c0,0.278-0.09,0.65-0.18,0.928c-0.27,0.742-1.796,4.637-1.887,5.008c-0.089,0.371-0.269,0.834-0.719,0.834
			c-0.357,0-0.539-0.37-0.628-0.927c-0.18-1.298-0.628-2.504-2.065-2.504c-1.348,0-2.425,0.927-4.312,3.802
			c-2.695,4.174-10.958,20.404-10.958,23.371c0,1.485,0.719,1.485,1.078,1.485c2.695,0,8.712-3.71,14.46-10.294
			c0.18-0.187,0.359-0.279,0.719-0.279c0.271,0,0.45,0.093,0.45,0.463c0,0.372-1.977,2.412-2.605,2.969
			c-4.94,5.008-10.06,8.255-13.114,8.255c-3.683,0-4.85-3.804-4.85-6.399c0-2.689,1.167-5.102,1.976-6.957
			c1.526-3.339,3.862-8.16,5.749-12.149c1.706-3.432,2.784-5.843,2.784-7.42c0-1.02-0.449-1.298-1.078-1.298
			c-3.323,0-8.264,8.811-8.803,9.923c-0.089,0.371-0.18,0.649-0.628,0.649c-0.359,0-0.449-0.371-0.449-0.556
			c0-0.742,6.018-11.315,9.97-11.315c3.413,0,3.593,5.472,3.593,7.048c0,1.113-0.09,2.041-0.27,3.339l0.719-0.835L105.449,37.749z"
			/>
		<path fill="#BF902D" d="M140.389,42.387c-0.988,1.206-1.168,1.577-3.054,4.452c-0.45,0.742-6.737,10.665-14.552,18.086
			c-2.156,2.133-4.94,4.822-7.725,4.822c-3.412,0-3.861-4.453-3.861-6.493c0-2.781,1.438-9.831,7.005-16.972
			c2.245-2.875,10.599-11.779,21.378-11.779c0.898,0,1.797,0.093,2.605,0.279c0.447,0.092,0.807,0.186,1.258,0.371h5.657
			l-8.353,19.198c-1.887,4.451-5.03,11.778-5.03,13.542c0,0.277,0.18,0.65,0.539,0.65c0.628,0,6.017-3.805,10.509-11.132
			c0.18-0.463,0.358-0.928,0.809-0.928c0.359,0,0.539,0.186,0.539,0.465c0,1.111-8.533,12.985-12.844,12.985
			c-1.078,0-3.685-1.021-3.685-5.474c0-2.597,1.079-4.916,3.146-9.645L140.389,42.387z M140.389,35.895
			c-3.504,0-8.624,2.041-13.834,7.883c-8.353,9.461-11.227,20.961-11.227,23.372c0,1.207,0.27,1.3,0.629,1.3
			c1.617,0,4.67-2.969,5.3-3.524c4.04-3.804,7.544-8.348,9.79-11.225c7.096-9.366,8.713-12.334,11.406-17.528
			C141.646,35.987,141.197,35.895,140.389,35.895z"/>
		<path fill="#BF902D" d="M174.16,38.027c0.628-0.742,0.808-1.021,0.808-1.206c0-0.371-0.539-0.927-1.438-0.927
			c-6.915,0-16.796,17.714-16.796,27.915c0,1.764,0.18,4.733,2.605,4.733c3.232,0,10.777-6.031,15.448-12.06
			c0.18-0.277,0.539-0.834,0.987-0.834c0.271,0,0.45,0.37,0.45,0.557c0,0.371-1.438,2.04-3.234,3.986
			c-0.897,1.021-8.891,9.833-14.819,9.833c-3.055,0-6.735-2.411-6.735-8.626c0-11.871,11.406-26.71,21.825-26.71
			c4.042,0,5.568,2.411,5.568,4.823c0,2.226-1.258,4.729-3.594,4.729c-1.347,0-2.783-1.02-2.783-2.875
			c0-1.484,0.897-2.411,1.077-2.69C173.71,38.491,173.98,38.305,174.16,38.027z"/>
		<path fill="#BF902D" d="M185.835,62.419c0,2.041,0.448,5.659,2.964,5.659c3.414,0,10.778-5.845,14.821-11.13
			c0.898-1.207,0.898-1.299,1.168-1.299c0.359,0,0.539,0.277,0.539,0.464c0,0.835-10.688,13.82-18.773,13.82
			c-5.839,0-6.288-5.382-6.288-7.422c0-4.636,2.515-13.726,7.725-20.033c3.504-4.266,8.713-7.697,13.473-7.697
			c4.224,0,5.481,2.782,5.481,4.544c0,1.113-0.18,3.153-4.044,7.048c-5.568,5.38-12.035,8.348-16.258,10.388
			C186.194,58.71,185.835,60.379,185.835,62.419z M204.339,38.862c0-1.483-1.168-2.875-3.145-2.875
			c-4.491,0-10.958,7.698-14.192,19.477C200.835,48.879,204.339,41.459,204.339,38.862z"/>
	</g>
	<g>
		<path fill="#BF902D" d="M77.869,85.742c0-0.014-0.015,0.176-0.042,0.568c-0.057,0.789-0.084,1.577-0.084,2.365
			c0,0.098,0.014,0.277,0.042,0.539c0.028,0.259,0.042,0.572,0.042,0.938v0.188c0,0.184-0.057,0.275-0.169,0.275
			s-0.211-0.105-0.295-0.316c-0.197-0.492-0.394-0.795-0.59-0.908c-1.014,0.887-2.23,1.331-3.652,1.331
			c-2.069,0-3.781-0.722-5.139-2.164c-1.358-1.442-2.037-3.261-2.037-5.456c0-2.209,0.623-4.014,1.868-5.414
			c1.246-1.4,2.853-2.1,4.824-2.1c0.717,0,1.291,0.059,1.719,0.18c0.43,0.119,0.961,0.361,1.594,0.728
			c0.31,0.183,0.542,0.274,0.697,0.274c0.127,0,0.246-0.111,0.359-0.338c0.183-0.395,0.331-0.592,0.443-0.592
			s0.169,0.057,0.169,0.17c0,0.056-0.015,0.148-0.043,0.274c-0.155,0.675-0.231,1.942-0.231,3.798c0,0.268-0.022,0.424-0.064,0.467
			c-0.042,0.041-0.098,0.062-0.168,0.062c-0.141,0-0.232-0.133-0.274-0.402c-0.183-1.125-0.443-1.963-0.781-2.511
			c-0.689-1.125-1.772-1.688-3.25-1.688c-1.14,0-2.041,0.379-2.702,1.141c-1.196,1.363-1.794,3.361-1.794,5.993
			c0,2.351,0.493,4.172,1.478,5.468c0.858,1.125,1.998,1.688,3.419,1.688c0.731,0,1.4-0.184,2.005-0.549
			c0.605-0.365,1.073-0.869,1.403-1.51c0.331-0.639,0.587-1.409,0.77-2.311c0.07-0.338,0.162-0.506,0.274-0.506
			C77.797,85.426,77.869,85.529,77.869,85.742z"/>
		<path fill="#BF902D" d="M93.213,90.279c0,0.127-0.133,0.189-0.398,0.189h-2.89c-0.195,0-0.482,0-0.859,0s-0.656,0-0.837,0
			c-0.28,0-0.418-0.055-0.418-0.167s0.326-0.19,0.979-0.233c0.348-0.025,0.549-0.087,0.605-0.178
			c0.055-0.09,0.083-0.417,0.083-0.979v-6.146h-6.353v5.974c0,0.633,0.049,1.007,0.147,1.118c0.099,0.113,0.429,0.189,0.992,0.232
			c0.366,0.027,0.548,0.092,0.548,0.189c0,0.127-0.141,0.189-0.422,0.189h-0.189c-0.338,0-0.694,0-1.066,0c-0.374,0-0.595,0-0.666,0
			c-0.197,0-0.492,0-0.886,0c-0.395,0-0.985,0-1.773,0c-0.281,0-0.422-0.055-0.422-0.167s0.141-0.183,0.422-0.211
			c0.183-0.015,0.373-0.028,0.57-0.042c0.309-0.028,0.506-0.099,0.59-0.211c0.042-0.07,0.063-0.465,0.063-1.182V77.529
			c0-0.633-0.031-1.004-0.095-1.117c-0.064-0.111-0.285-0.176-0.665-0.189c-0.437-0.03-0.694-0.053-0.771-0.066
			c-0.077-0.016-0.115-0.074-0.115-0.178c0-0.119,0.091-0.178,0.274-0.178c0.056,0,0.176,0.008,0.359,0.021
			c0.352,0.027,1.183,0.042,2.49,0.042c0.718,0,1.217-0.011,1.499-0.032c0.099-0.021,0.225-0.031,0.38-0.031
			c0.253,0,0.38,0.07,0.38,0.212c0,0.126-0.229,0.19-0.686,0.19s-0.732,0.053-0.823,0.158c-0.092,0.105-0.137,0.441-0.137,1.006
			v4.871h6.353v-4.554c0-0.747-0.056-1.188-0.169-1.323c-0.113-0.133-0.507-0.193-1.182-0.18c-0.211,0-0.316-0.062-0.316-0.191
			c0-0.126,0.119-0.189,0.358-0.189h0.105c0.197,0,0.542,0,1.034,0c0.506,0,0.886,0,1.139,0c0.859,0,1.439,0,1.742,0
			c0.302,0,0.496,0,0.58,0c0.296,0,0.444,0.063,0.444,0.189c0,0.127-0.309,0.197-0.929,0.211c-0.184,0-0.316,0.015-0.401,0.043
			c-0.141,0.042-0.229,0.119-0.264,0.23c-0.035,0.115-0.053,0.444-0.053,0.992v11.23c0,0.675,0.035,1.068,0.105,1.182
			c0.139,0.154,0.542,0.232,1.208,0.232C93.102,90.083,93.213,90.139,93.213,90.279z"/>
		<path fill="#BF902D" d="M108.135,83.23c0,2.096-0.629,3.869-1.889,5.318s-2.804,2.175-4.633,2.175
			c-1.942,0-3.575-0.735-4.897-2.206c-1.323-1.471-1.984-3.283-1.984-5.435c0-2.195,0.637-3.993,1.91-5.394s2.902-2.1,4.886-2.1
			c1.872,0,3.44,0.73,4.706,2.195C107.502,79.248,108.135,81.062,108.135,83.23z M105.771,83.336c0-2.582-0.527-4.594-1.583-6.033
			c-0.662-0.902-1.583-1.354-2.765-1.354c-1.126,0-1.999,0.345-2.617,1.037c-1.14,1.27-1.71,3.338-1.71,6.201
			c0,2.271,0.398,4.036,1.193,5.293c0.795,1.256,1.91,1.884,3.346,1.884c1.336,0,2.343-0.593,3.018-1.778
			C105.398,87.273,105.771,85.523,105.771,83.336z"/>
		<path fill="#BF902D" d="M121.875,85.742c0-0.014-0.014,0.176-0.041,0.568c-0.057,0.789-0.085,1.577-0.085,2.365
			c0,0.098,0.015,0.277,0.042,0.539c0.028,0.259,0.043,0.572,0.043,0.938v0.188c0,0.184-0.057,0.275-0.17,0.275
			c-0.111,0-0.211-0.105-0.295-0.316c-0.197-0.492-0.394-0.795-0.59-0.908c-1.015,0.887-2.232,1.331-3.652,1.331
			c-2.068,0-3.783-0.722-5.141-2.164s-2.035-3.261-2.035-5.456c0-2.209,0.621-4.014,1.867-5.414c1.244-1.4,2.853-2.1,4.822-2.1
			c0.718,0,1.291,0.059,1.721,0.18c0.428,0.119,0.959,0.361,1.594,0.728c0.31,0.183,0.541,0.274,0.695,0.274
			c0.129,0,0.247-0.111,0.359-0.338c0.184-0.395,0.332-0.592,0.443-0.592c0.113,0,0.17,0.057,0.17,0.17
			c0,0.056-0.015,0.148-0.043,0.274c-0.154,0.675-0.232,1.942-0.232,3.798c0,0.268-0.021,0.424-0.062,0.467
			c-0.043,0.041-0.099,0.062-0.169,0.062c-0.141,0-0.233-0.133-0.274-0.402c-0.184-1.125-0.444-1.963-0.781-2.511
			c-0.689-1.125-1.772-1.688-3.25-1.688c-1.141,0-2.041,0.379-2.702,1.141c-1.196,1.363-1.794,3.361-1.794,5.993
			c0,2.351,0.492,4.172,1.477,5.468c0.859,1.125,1.998,1.688,3.42,1.688c0.732,0,1.4-0.184,2.006-0.549
			c0.604-0.365,1.071-0.869,1.402-1.51c0.332-0.639,0.588-1.409,0.771-2.311c0.07-0.338,0.163-0.506,0.274-0.506
			C121.805,85.426,121.875,85.529,121.875,85.742z"/>
		<path fill="#BF902D" d="M137.115,83.23c0,2.096-0.631,3.869-1.89,5.318s-2.805,2.175-4.633,2.175
			c-1.942,0-3.575-0.735-4.897-2.206s-1.984-3.283-1.984-5.435c0-2.195,0.637-3.993,1.912-5.394c1.273-1.4,2.9-2.1,4.885-2.1
			c1.871,0,3.441,0.73,4.707,2.195C136.482,79.248,137.115,81.062,137.115,83.23z M134.75,83.336c0-2.582-0.527-4.594-1.582-6.033
			c-0.662-0.902-1.583-1.354-2.766-1.354c-1.125,0-1.998,0.345-2.617,1.037c-1.139,1.27-1.709,3.338-1.709,6.201
			c0,2.271,0.396,4.036,1.191,5.293c0.795,1.256,1.911,1.884,3.346,1.884c1.338,0,2.344-0.593,3.019-1.778
			C134.377,87.273,134.75,85.523,134.75,83.336z"/>
		<path fill="#BF902D" d="M149.694,88.802c0,0.366-0.022,0.972-0.063,1.815h-0.232c-0.084,0-0.289-0.014-0.61-0.042
			c-0.323-0.028-0.688-0.042-1.095-0.042l-8.765-0.064c-0.239,0-0.358-0.062-0.358-0.189c0-0.098,0.189-0.162,0.569-0.189
			c0.536-0.029,0.856-0.088,0.961-0.18c0.106-0.092,0.157-0.355,0.157-0.791V77.256c0-0.52-0.051-0.822-0.157-0.907
			c-0.104-0.085-0.481-0.126-1.13-0.126c-0.268,0-0.4-0.077-0.4-0.232c0-0.126,0.085-0.189,0.254-0.189h0.189
			c0.465,0.041,1.385,0.063,2.766,0.063c0.126,0,0.371-0.011,0.738-0.032c0.365-0.021,0.668-0.031,0.908-0.031h0.23
			c0.254,0,0.381,0.07,0.381,0.211c0,0.084-0.039,0.137-0.116,0.158s-0.32,0.038-0.728,0.053c-0.408,0.014-0.652,0.08-0.729,0.201
			c-0.078,0.119-0.115,0.488-0.115,1.107v12.453c0.379,0.014,0.907,0.021,1.582,0.021c1.646,0,2.807-0.085,3.482-0.253
			c0.676-0.169,1.132-0.486,1.373-0.95c0.238-0.464,0.379-1.091,0.422-1.878c0.012-0.184,0.094-0.275,0.242-0.275
			c0.176,0,0.256,0.106,0.243,0.317v0.528c0,0.027,0,0.09,0,0.189c0,0.098,0,0.197,0,0.295V88.802z"/>
		<path fill="#BF902D" d="M163.561,90.332c0,0.119-0.105,0.18-0.316,0.18c-0.141,0-0.268-0.007-0.379-0.021l-2.682-0.084
			l-2.68,0.084c-0.1,0.015-0.205,0.021-0.317,0.021c-0.281,0-0.422-0.074-0.422-0.221c0-0.162,0.188-0.244,0.57-0.244
			c1.237-0.014,1.856-0.137,1.856-0.371c0-0.015-0.014-0.069-0.043-0.166l-0.173-0.559l-0.108-0.295
			c-0.126-0.436-0.436-1.401-0.928-2.894h-4.511c-0.844,2.251-1.266,3.546-1.266,3.884c0,0.197,0.085,0.316,0.253,0.358
			c0.043,0.015,0.395,0.042,1.057,0.085c0.408,0.014,0.611,0.084,0.611,0.211c0,0.141-0.184,0.211-0.549,0.211
			c-0.646,0-1.4-0.029-2.258-0.085c-0.211-0.013-0.43-0.021-0.654-0.021c-0.226,0-0.444,0.023-0.655,0.07
			c-0.112,0.023-0.203,0.035-0.273,0.035c-0.196,0-0.297-0.062-0.297-0.191c0-0.127,0.222-0.197,0.665-0.211
			c0.444-0.014,0.764-0.081,0.96-0.201c0.196-0.121,0.353-0.349,0.466-0.688c1.809-5.197,3.283-9.369,4.418-12.518
			c0.033-0.166,0.1-0.352,0.197-0.559l0.091-0.387c0.042-0.154,0.099-0.23,0.169-0.23c0.042,0,0.078,0.041,0.105,0.126
			c0.184,0.548,0.598,1.695,1.244,3.438c0.508,1.366,1.766,4.793,3.778,10.28c0.112,0.319,0.258,0.521,0.433,0.608
			c0.177,0.087,0.539,0.137,1.088,0.15C163.377,90.146,163.561,90.213,163.561,90.332z M157.82,85.277
			c-0.229-0.632-0.607-1.679-1.137-3.139l-1.014-2.926c-0.588,1.555-1.295,3.576-2.119,6.064H157.82z"/>
		<path fill="#BF902D" d="M174.663,79.578c0,0.184-0.085,0.275-0.253,0.275c-0.17,0-0.289-0.184-0.359-0.549
			c-0.028-0.254-0.057-0.508-0.084-0.761c-0.1-0.507-0.262-0.937-0.486-1.288c-0.295-0.463-0.781-0.759-1.457-0.885
			c-0.436-0.085-0.787-0.119-1.055-0.107c-0.662,0.02-1.062,0.033-1.203,0.043v12.746c0,0.508,0.133,0.826,0.4,0.952
			c0.141,0.07,0.535,0.112,1.184,0.126c0.168,0.015,0.252,0.074,0.252,0.18c0,0.121-0.111,0.18-0.337,0.18
			c-0.112,0-0.211-0.008-0.296-0.021c-0.845-0.027-1.443-0.042-1.793-0.042c-0.466,0-0.902,0.011-1.31,0.032
			s-0.929,0.031-1.562,0.031c-0.323,0-0.484-0.056-0.484-0.168c0-0.127,0.302-0.199,0.906-0.213c0.438,0,0.719-0.09,0.845-0.273
			c0.07-0.113,0.105-0.402,0.105-0.867V76.307c-1.393,0.014-2.258,0.084-2.596,0.211c-0.886,0.324-1.408,1.19-1.562,2.597
			c-0.042,0.422-0.141,0.633-0.295,0.633c-0.169,0-0.254-0.147-0.254-0.442c0-0.154,0.007-0.309,0.022-0.465l0.04-0.484
			c0.045-0.647,0.107-1.499,0.191-2.555h0.949l4.307,0.063c0.506,0.015,1.294,0.015,2.364,0l3.503-0.063
			c0.028,0.789,0.119,1.955,0.275,3.504c0,0.043,0.006,0.094,0.02,0.158C174.655,79.525,174.663,79.564,174.663,79.578z"/>
		<path fill="#BF902D" d="M181.078,90.291c0,0.119-0.084,0.178-0.254,0.178h-0.211c-0.086-0.042-1.045-0.062-2.881-0.062
			c-0.354,0-0.709,0.014-1.061,0.043c-0.184,0.014-0.467,0.02-0.848,0.02c-0.184,0-0.275-0.062-0.275-0.189
			c0-0.111,0.184-0.176,0.549-0.189c0.562-0.015,0.894-0.08,0.992-0.201c0.098-0.119,0.148-0.525,0.148-1.219V77.536
			c0-0.692-0.036-1.079-0.107-1.165c-0.086-0.141-0.477-0.226-1.176-0.254c-0.271-0.012-0.406-0.062-0.406-0.15
			c0-0.11,0.086-0.166,0.256-0.166h2.883c0.213,0,0.625,0.008,1.238,0.021l0.811-0.021c0.229,0,0.342,0.061,0.342,0.18
			c0,0.107-0.316,0.173-0.951,0.199c-0.361,0.014-0.581,0.078-0.659,0.191c-0.079,0.111-0.12,0.407-0.12,0.885v11.272
			c0,0.802,0.035,1.237,0.107,1.308c0.156,0.154,0.619,0.247,1.389,0.275C181,90.111,181.078,90.17,181.078,90.291z"/>
		<path fill="#BF902D" d="M193.468,87.072c0,0.057-0.015,0.4-0.042,1.033c-0.028,0.634-0.043,1.238-0.043,1.814v0.697
			c-1.377-0.084-4.107-0.127-8.188-0.127c-0.492,0-0.978,0-1.456,0s-0.802,0-0.971,0h-0.211c-0.269,0-0.401-0.056-0.401-0.17
			c0-0.074,0.042-0.119,0.126-0.131c0.043,0,0.311-0.02,0.803-0.059c0.365-0.027,0.587-0.104,0.665-0.232
			c0.077-0.127,0.116-0.457,0.116-0.995V77.006c0-0.408-0.061-0.652-0.18-0.73c-0.119-0.076-0.504-0.115-1.15-0.115
			c-0.225,0-0.338-0.061-0.338-0.18s0.154-0.18,0.465-0.18h3.609c0.126,0,0.922,0,2.385,0s2.447,0,2.955,0
			c0.422,0,0.809-0.029,1.161-0.085c0.028,0.604,0.091,1.442,0.188,2.513l0.085,0.906c0.015,0.072,0.022,0.162,0.022,0.275
			c0,0.141-0.064,0.211-0.191,0.211c-0.154,0-0.268-0.178-0.338-0.531c-0.267-1.273-0.703-2.082-1.307-2.422
			c-0.452-0.254-1.633-0.382-3.547-0.382h-1.732v6.204h0.508c1.576,0,2.537-0.118,2.881-0.357c0.345-0.238,0.58-0.936,0.707-2.09
			c0.028-0.296,0.106-0.443,0.232-0.443c0.155,0,0.232,0.127,0.232,0.381c0,0.252-0.015,0.626-0.043,1.118
			c-0.027,0.492-0.042,0.866-0.042,1.118c0,1.506,0.023,2.539,0.067,3.102c0.012,0.143,0.018,0.262,0.018,0.359
			c0,0.184-0.077,0.275-0.232,0.275c-0.098,0-0.164-0.061-0.197-0.18c-0.037-0.12-0.096-0.51-0.18-1.172
			c-0.111-0.83-0.455-1.344-1.03-1.541c-0.251-0.084-0.909-0.126-1.974-0.126h-0.947v7.07c3.098,0,4.912-0.062,5.447-0.188
			c0.928-0.208,1.457-1.097,1.583-2.669c0.028-0.347,0.118-0.52,0.273-0.52C193.397,86.629,193.468,86.775,193.468,87.072z"/>
		<path fill="#BF902D" d="M206.429,89.836c0,0.591-0.492,0.888-1.477,0.888c-1.1,0-1.958-0.458-2.577-1.374
			c-0.268-0.393-0.439-0.773-0.517-1.139c-0.078-0.365-0.194-1.293-0.349-2.785c-0.084-0.9-0.373-1.538-0.865-1.912
			c-0.492-0.371-1.295-0.571-2.406-0.602v6.648c0,0.283,0.225,0.459,0.675,0.529c0.126,0.014,0.45,0.027,0.972,0.041
			c0.184,0,0.273,0.057,0.273,0.17c0,0.126-0.119,0.189-0.357,0.189h-0.254c-0.127,0-0.738,0-1.837,0c-0.211,0-0.569,0-1.077,0
			c-0.492,0-0.814,0-0.97,0h-0.823c-0.31,0-0.465-0.063-0.465-0.189c0-0.1,0.203-0.155,0.613-0.17
			c0.66-0.014,1.02-0.098,1.076-0.252c0.055-0.07,0.084-0.344,0.084-0.824v-11.65c0-0.562-0.061-0.899-0.18-1.014
			c-0.119-0.112-0.482-0.175-1.087-0.189c-0.352,0-0.528-0.063-0.528-0.189c0-0.141,0.113-0.211,0.34-0.211
			c0.041,0,0.104,0.008,0.188,0.021l2.808,0.062c0.281,0,0.676-0.01,1.182-0.028c0.562-0.038,0.957-0.056,1.183-0.056
			c1.308,0,2.345,0.291,3.112,0.876c0.769,0.585,1.151,1.375,1.151,2.374c0,0.985-0.395,1.798-1.183,2.438
			c-0.789,0.641-1.857,1.016-3.207,1.128c-0.127,0.014-0.199,0.036-0.211,0.064c0,0.057,0.068,0.084,0.211,0.084
			c1.477,0.255,2.493,0.773,3.049,1.557s0.927,2.197,1.108,4.244c0.113,1.156,0.508,1.734,1.182,1.734
			c0.211,0,0.318-0.043,0.318-0.127c0-0.014-0.008-0.028-0.023-0.043c-0.07-0.154-0.104-0.281-0.104-0.379
			c0-0.295,0.154-0.443,0.464-0.443C206.259,89.309,206.429,89.484,206.429,89.836z M202.059,79.262
			c0-2.012-0.873-3.018-2.617-3.018c-0.465,0-0.781,0.062-0.95,0.189c-0.169,0.126-0.253,0.353-0.253,0.676v5.361
			c1.35,0.014,2.324-0.232,2.924-0.739C201.76,81.225,202.059,80.402,202.059,79.262z"/>
	</g>
</g>
</svg>
